<svg xmlns="http://www.w3.org/2000/svg" xmlns:xlink="http://www.w3.org/1999/xlink" viewBox="0 0 100 100"><defs><linearGradient id="a" x1="10.25" y1="50" x2="89.75" y2="50" gradientUnits="userSpaceOnUse"><stop offset="0" stop-color="#e6515b"/><stop offset="0.02" stop-color="#e9646d"/><stop offset="0.07" stop-color="#ee888f"/><stop offset="0.13" stop-color="#f3a8ad"/><stop offset="0.19" stop-color="#f6c4c7"/><stop offset="0.27" stop-color="#fadadc"/><stop offset="0.35" stop-color="#fcebec"/><stop offset="0.45" stop-color="#fef6f7"/><stop offset="0.6" stop-color="#fffdfd"/><stop offset="1" stop-color="#fff"/></linearGradient></defs><circle cx="50" cy="50" r="39.75" style="fill:url(#a)"/><path d="M50,10.5A39.5,39.5,0,1,1,10.5,50,39.55,39.55,0,0,1,50,10.5m0-.5A40,40,0,1,0,90,50,40,40,0,0,0,50,10Z" style="fill:#231815"/><circle cx="72" cy="50" r="15" style="fill:#231815"/><polyline points="28.87 39.42 24.76 42.36 19.43 42.36 10 50 17.75 59.07 20.41 62.7 24.76 66.56 30.32 69.22" style="fill:none;stroke:#e60012;stroke-linejoin:bevel;stroke-width:0.5px"/><polyline points="22.82 25.22 16.78 30.78 13.15 39.42 10 50" style="fill:none;stroke:#e60012;stroke-linejoin:bevel;stroke-width:0.5px"/><polyline points="44.34 42.15 28.87 45.29 22.1 44.56 17.75 48.43 13.39 50 10 50 13.64 44.81 18.23 33.68 23.55 37.55 28.87 31.99" style="fill:none;stroke:#e60012;stroke-linejoin:bevel;stroke-width:0.5px"/><polyline points="47 60.28 28.87 56.89 21.37 54.23 14.85 56.89 10 50 14.85 61.25 16.05 66.81 20.41 70.43 20.41 73.58 25.24 73.58 25.24 77.69" style="fill:none;stroke:#e60012;stroke-linejoin:bevel;stroke-width:0.5px"/><polyline points="40.23 47.95 28.5 51.82 20.41 51.82 14.85 56.89" style="fill:none;stroke:#e60012;stroke-linejoin:bevel;stroke-width:0.5px"/><polyline points="32.74 27.88 24.52 27.88 18.23 33.68" style="fill:none;stroke:#e60012;stroke-miterlimit:10;stroke-width:0.5px"/><polyline points="44.34 69.22 40.23 71.64 31.29 65 20.41 62.7" style="fill:none;stroke:#e60012;stroke-miterlimit:10;stroke-width:0.5px"/><line x1="36.61" y1="79.62" x2="25.24" y2="73.58" style="fill:none;stroke:#e60012;stroke-miterlimit:10;stroke-width:0.5px"/></svg>